<svg width="167" height="50" viewBox="0 0 167 50" fill="none" xmlns="http://www.w3.org/2000/svg">
<path d="M28.5 12.5L40 14L43.5 28.5L26.5 38L21.5 27.5L28.5 12.5Z" fill="white"/>
<path d="M24.1604 6.04694C23.3025 6.937 23.1511 7.77469 23.1511 11.5443V15.9946H18.8616C12.6545 15.9946 12.5536 16.1517 12.5536 25.0522C12.5536 34.2669 12.6041 34.3193 18.6598 34.3193H23.1511V38.7695C23.1511 45.2093 23.3025 45.314 31.8815 45.314C40.7632 45.314 40.8137 45.2617 40.8137 38.9789V34.3193H45.2545C51.4616 34.3193 51.4112 34.3716 51.4112 25.2616C51.4112 16.0993 51.3103 15.9946 45.1031 15.9946H40.8137V11.3349C40.8137 5.05218 40.7632 4.99982 31.8815 4.99982C25.8257 4.99982 25.0688 5.10453 24.1604 6.04694ZM40.1576 18.403C40.3595 20.026 40.1072 20.8637 39.0979 22.4344C38.3914 23.5339 37.7858 24.8951 37.7858 25.4711C37.7858 27.7224 36.2719 30.0784 33.4459 32.3297C29.8124 35.2093 28.6013 35.8899 27.1378 35.8899C26.2294 35.8899 26.4818 35.6282 28.1976 34.6857C30.8217 33.3245 32.1338 31.5967 32.588 28.9266C32.9917 26.2564 31.8815 25.9423 28.5003 27.7224C25.7248 29.1884 23.8072 29.1884 22.6465 27.7747C22.2428 27.2512 22.5455 27.1465 24.009 27.1465C25.422 27.1988 26.6332 26.7276 28.7022 25.2616C31.9824 22.958 33.3449 22.8533 35.1112 24.7381L36.4233 26.2041L36.07 24.7381C35.8177 23.5339 36.0195 22.9056 37.2811 21.4396C38.896 19.5025 39.2493 17.3559 38.24 15.314L37.6849 14.1621L38.7951 15.2616C39.4007 15.8899 40.0062 17.2512 40.1576 18.403ZM34.657 19.2407C35.5149 20.1307 35.414 21.492 34.4551 22.3297C32.8907 23.691 30.9226 21.0208 32.2347 19.3978C32.9917 18.4553 33.8496 18.403 34.657 19.2407Z" fill="#364856"/>
<path d="M42.1714 43.856C42.0571 43.856 42 43.792 42 43.664C42 43.608 42.0122 43.56 42.0367 43.52C42.0694 43.48 42.1142 43.46 42.1714 43.46C42.4488 43.46 42.6692 43.42 42.8324 43.34C43.0037 43.26 43.0894 43.056 43.0894 42.728V36.26C43.0894 35.956 43.016 35.76 42.8691 35.672C42.7222 35.584 42.506 35.54 42.2203 35.54C42.1714 35.54 42.1306 35.52 42.0979 35.48C42.0653 35.44 42.049 35.392 42.049 35.336C42.049 35.288 42.0653 35.244 42.0979 35.204C42.1306 35.164 42.1714 35.144 42.2203 35.144C42.2693 35.144 42.3795 35.148 42.5508 35.156C42.7304 35.164 42.9221 35.172 43.1262 35.18C43.3383 35.18 43.5056 35.18 43.628 35.18C43.7586 35.18 43.9259 35.18 44.1299 35.18C44.3421 35.172 44.5339 35.164 44.7052 35.156C44.8848 35.148 44.9949 35.144 45.0357 35.144C45.0929 35.144 45.1337 35.164 45.1581 35.204C45.1908 35.244 45.2071 35.288 45.2071 35.336C45.2071 35.392 45.1908 35.44 45.1581 35.48C45.1337 35.52 45.0929 35.54 45.0357 35.54C44.7583 35.54 44.5461 35.584 44.3992 35.672C44.2523 35.76 44.1789 35.956 44.1789 36.26V39.236C44.1789 39.34 44.2319 39.392 44.338 39.392H48.0103C48.1163 39.392 48.1694 39.34 48.1694 39.236V36.26C48.1694 35.956 48.0959 35.76 47.9491 35.672C47.8022 35.584 47.5859 35.54 47.3003 35.54C47.2513 35.54 47.2105 35.52 47.1779 35.48C47.1452 35.44 47.1289 35.392 47.1289 35.336C47.1289 35.288 47.1452 35.244 47.1779 35.204C47.2105 35.164 47.2513 35.144 47.3003 35.144C47.3411 35.144 47.4513 35.148 47.6308 35.156C47.8103 35.164 48.0021 35.172 48.2061 35.18C48.4183 35.18 48.5856 35.18 48.708 35.18C48.8386 35.18 49.0058 35.18 49.2099 35.18C49.422 35.172 49.6138 35.164 49.7852 35.156C49.9647 35.148 50.0749 35.144 50.1157 35.144C50.1728 35.144 50.2136 35.164 50.2381 35.204C50.2707 35.244 50.2871 35.288 50.2871 35.336C50.2871 35.392 50.2707 35.44 50.2381 35.48C50.2136 35.52 50.1728 35.54 50.1157 35.54C49.8382 35.54 49.626 35.584 49.4792 35.672C49.3323 35.76 49.2588 35.956 49.2588 36.26V42.728C49.2588 43.056 49.3404 43.26 49.5036 43.34C49.675 43.42 49.8994 43.46 50.1769 43.46C50.234 43.46 50.2748 43.48 50.2993 43.52C50.3319 43.56 50.3483 43.608 50.3483 43.664C50.3483 43.792 50.2911 43.856 50.1769 43.856C50.1279 43.856 50.0096 43.856 49.8219 43.856C49.6342 43.848 49.4343 43.844 49.2221 43.844C49.0099 43.836 48.8386 43.832 48.708 43.832C48.5856 43.832 48.4183 43.836 48.2061 43.844C47.9939 43.844 47.794 43.848 47.6063 43.856C47.4268 43.856 47.3084 43.856 47.2513 43.856C47.1371 43.856 47.08 43.792 47.08 43.664C47.08 43.608 47.0922 43.56 47.1167 43.52C47.1493 43.48 47.1942 43.46 47.2513 43.46C47.5288 43.46 47.7491 43.42 47.9123 43.34C48.0837 43.26 48.1694 43.056 48.1694 42.728V39.98C48.1694 39.876 48.1163 39.824 48.0103 39.824H44.338C44.2319 39.824 44.1789 39.876 44.1789 39.98V42.728C44.1789 43.056 44.2605 43.26 44.4237 43.34C44.5951 43.42 44.8195 43.46 45.0969 43.46C45.1541 43.46 45.1949 43.48 45.2193 43.52C45.252 43.56 45.2683 43.608 45.2683 43.664C45.2683 43.792 45.2112 43.856 45.0969 43.856C45.048 43.856 44.9296 43.856 44.7419 43.856C44.5543 43.848 44.3543 43.844 44.1421 43.844C43.93 43.836 43.7586 43.832 43.628 43.832C43.5056 43.832 43.3383 43.836 43.1262 43.844C42.914 43.844 42.714 43.848 42.5264 43.856C42.3468 43.856 42.2285 43.856 42.1714 43.856Z" fill="#77BFA3"/>
<path d="M53.634 44C53.1688 44 52.7404 43.876 52.3487 43.628C51.9651 43.38 51.6591 43.052 51.4306 42.644C51.2021 42.228 51.0879 41.772 51.0879 41.276C51.0879 40.78 51.2021 40.328 51.4306 39.92C51.6591 39.504 51.9651 39.172 52.3487 38.924C52.7404 38.676 53.1688 38.552 53.634 38.552C54.1073 38.552 54.5357 38.676 54.9193 38.924C55.311 39.172 55.6211 39.504 55.8496 39.92C56.0781 40.328 56.1923 40.78 56.1923 41.276C56.1923 41.772 56.0781 42.228 55.8496 42.644C55.6211 43.052 55.311 43.38 54.9193 43.628C54.5357 43.876 54.1073 44 53.634 44ZM53.634 43.628C54.091 43.628 54.4337 43.412 54.6622 42.98C54.8907 42.548 55.0049 41.98 55.0049 41.276C55.0049 40.572 54.8907 40.004 54.6622 39.572C54.4337 39.14 54.091 38.924 53.634 38.924C53.1851 38.924 52.8424 39.14 52.6057 39.572C52.3772 40.004 52.263 40.572 52.263 41.276C52.263 41.98 52.3772 42.548 52.6057 42.98C52.8424 43.412 53.1851 43.628 53.634 43.628Z" fill="#77BFA3"/>
<path d="M59.1262 44C58.6529 44 58.2734 43.86 57.9878 43.58C57.7022 43.3 57.5594 42.892 57.5594 42.356V39.692C57.5594 39.532 57.543 39.408 57.5104 39.32C57.4777 39.232 57.4043 39.18 57.2901 39.164C57.2248 39.156 57.1595 39.148 57.0942 39.14C57.0289 39.132 56.9718 39.124 56.9228 39.116C56.8167 39.092 56.7637 39.024 56.7637 38.912C56.7637 38.864 56.7759 38.82 56.8004 38.78C56.8331 38.74 56.8779 38.72 56.9351 38.72C56.9596 38.72 57.033 38.72 57.1554 38.72C57.2778 38.712 57.4165 38.708 57.5716 38.708C57.7348 38.708 57.8817 38.708 58.0123 38.708C58.151 38.7 58.2408 38.696 58.2816 38.696C58.4693 38.696 58.5631 38.792 58.5631 38.984V42.176C58.5631 42.552 58.657 42.832 58.8446 43.016C59.0405 43.192 59.2976 43.28 59.6158 43.28C60.0075 43.28 60.2972 43.156 60.4849 42.908C60.6726 42.66 60.7665 42.372 60.7665 42.044V39.692C60.7665 39.532 60.7501 39.408 60.7175 39.32C60.6849 39.232 60.6114 39.18 60.4972 39.164C60.4319 39.156 60.3666 39.148 60.3013 39.14C60.236 39.132 60.1789 39.124 60.1299 39.116C60.0238 39.092 59.9708 39.024 59.9708 38.912C59.9708 38.864 59.983 38.82 60.0075 38.78C60.0402 38.74 60.0851 38.72 60.1422 38.72C60.1667 38.72 60.2401 38.72 60.3625 38.72C60.4849 38.712 60.6236 38.708 60.7787 38.708C60.9419 38.708 61.0888 38.708 61.2194 38.708C61.3581 38.7 61.4479 38.696 61.4887 38.696C61.6764 38.696 61.7702 38.792 61.7702 38.984V42.884C61.7702 43.068 61.7865 43.192 61.8192 43.256C61.86 43.312 61.9334 43.356 62.0395 43.388C62.0803 43.396 62.1211 43.404 62.1619 43.412C62.2109 43.42 62.2558 43.432 62.2966 43.448C62.4026 43.472 62.4557 43.536 62.4557 43.64C62.4557 43.76 62.3986 43.828 62.2843 43.844C62.2517 43.844 62.1497 43.844 61.9783 43.844C61.8069 43.844 61.6315 43.848 61.4519 43.856C61.2724 43.856 61.15 43.856 61.0847 43.856C60.9052 43.856 60.8154 43.772 60.8154 43.604C60.8073 43.564 60.7991 43.504 60.7909 43.424C60.7909 43.336 60.7909 43.268 60.7909 43.22C60.7746 43.108 60.7257 43.1 60.644 43.196C60.5869 43.268 60.4931 43.368 60.3625 43.496C60.2401 43.624 60.0769 43.74 59.8729 43.844C59.677 43.948 59.4281 44 59.1262 44Z" fill="#77BFA3"/>
<path d="M65.8301 44C65.5609 44 65.2997 43.964 65.0467 43.892C64.8019 43.828 64.5857 43.752 64.398 43.664C64.2184 43.584 64.0715 43.584 63.9573 43.664C63.9247 43.688 63.8879 43.72 63.8471 43.76C63.8063 43.8 63.7696 43.836 63.737 43.868C63.6635 43.94 63.586 43.96 63.5044 43.928C63.4309 43.904 63.3942 43.84 63.3942 43.736V42.308C63.3942 42.212 63.435 42.156 63.5166 42.14C63.6064 42.124 63.6758 42.152 63.7247 42.224C64.0022 42.664 64.3082 42.988 64.6428 43.196C64.9855 43.396 65.3895 43.496 65.8546 43.496C66.2137 43.496 66.5156 43.42 66.7605 43.268C67.0134 43.116 67.1399 42.896 67.1399 42.608C67.1399 42.392 67.0502 42.228 66.8706 42.116C66.6993 42.004 66.4748 41.916 66.1974 41.852C65.9199 41.788 65.6261 41.724 65.316 41.66C65.0141 41.588 64.7244 41.496 64.4469 41.384C64.1695 41.264 63.941 41.1 63.7614 40.892C63.5901 40.676 63.5044 40.388 63.5044 40.028C63.5044 39.78 63.5656 39.544 63.688 39.32C63.8186 39.096 64.0185 38.912 64.2878 38.768C64.5653 38.624 64.9162 38.552 65.3405 38.552C65.5935 38.552 65.8261 38.58 66.0382 38.636C66.2586 38.692 66.4585 38.756 66.638 38.828C66.8584 38.908 67.0053 38.92 67.0787 38.864C67.1114 38.84 67.1481 38.812 67.1889 38.78C67.2378 38.74 67.2787 38.704 67.3113 38.672C67.3766 38.624 67.4378 38.608 67.4949 38.624C67.552 38.64 67.5806 38.696 67.5806 38.792V40.052C67.5806 40.148 67.5357 40.208 67.4459 40.232C67.3562 40.248 67.295 40.216 67.2623 40.136C67.0828 39.704 66.8298 39.408 66.5034 39.248C66.1851 39.08 65.8546 38.996 65.5119 38.996C65.1202 38.996 64.8223 39.084 64.6183 39.26C64.4225 39.428 64.3245 39.616 64.3245 39.824C64.3245 40.024 64.4102 40.176 64.5816 40.28C64.7611 40.384 64.9855 40.468 65.2548 40.532C65.5323 40.588 65.822 40.648 66.1239 40.712C66.434 40.768 66.7237 40.856 66.993 40.976C67.2705 41.088 67.4949 41.252 67.6663 41.468C67.8458 41.684 67.9356 41.98 67.9356 42.356C67.9356 42.812 67.7479 43.2 67.3725 43.52C67.0053 43.84 66.4912 44 65.8301 44Z" fill="#77BFA3"/>
<path d="M70.8817 44C70.7022 44 70.5186 43.968 70.3309 43.904C70.1513 43.84 70.0004 43.736 69.878 43.592C69.7555 43.44 69.6943 43.232 69.6943 42.968V39.248C69.6943 39.184 69.6617 39.152 69.5964 39.152H68.9476C68.8334 39.152 68.7763 39.096 68.7763 38.984V38.912C68.7763 38.824 68.8334 38.768 68.9476 38.744C69.3312 38.632 69.6127 38.42 69.7923 38.108C69.98 37.788 70.1024 37.372 70.1595 36.86C70.1595 36.748 70.2166 36.692 70.3309 36.692H70.5145C70.6369 36.692 70.6981 36.748 70.6981 36.86V38.6C70.6981 38.664 70.7307 38.696 70.796 38.696H72.0201C72.0691 38.696 72.1099 38.716 72.1425 38.756C72.1751 38.788 72.1915 38.824 72.1915 38.864V38.984C72.1915 39.096 72.1343 39.152 72.0201 39.152H70.796C70.7307 39.152 70.6981 39.184 70.6981 39.248V42.608C70.6981 43.04 70.9103 43.256 71.3346 43.256C71.5305 43.256 71.6978 43.192 71.8365 43.064C71.9752 42.928 72.0854 42.784 72.167 42.632C72.2078 42.568 72.2527 42.536 72.3016 42.536C72.3506 42.536 72.4036 42.552 72.4608 42.584C72.5587 42.64 72.5791 42.728 72.522 42.848C72.4485 43.024 72.3424 43.2 72.2037 43.376C72.0731 43.552 71.9018 43.7 71.6896 43.82C71.4774 43.94 71.2081 44 70.8817 44Z" fill="#77BFA3"/>
<path d="M75.8325 44C75.3673 44 74.9389 43.876 74.5472 43.628C74.1636 43.38 73.8576 43.052 73.6291 42.644C73.4006 42.228 73.2864 41.772 73.2864 41.276C73.2864 40.78 73.4006 40.328 73.6291 39.92C73.8576 39.504 74.1636 39.172 74.5472 38.924C74.9389 38.676 75.3673 38.552 75.8325 38.552C76.3058 38.552 76.7342 38.676 77.1177 38.924C77.5094 39.172 77.8195 39.504 78.048 39.92C78.2765 40.328 78.3908 40.78 78.3908 41.276C78.3908 41.772 78.2765 42.228 78.048 42.644C77.8195 43.052 77.5094 43.38 77.1177 43.628C76.7342 43.876 76.3058 44 75.8325 44ZM75.8325 43.628C76.2894 43.628 76.6322 43.412 76.8607 42.98C77.0892 42.548 77.2034 41.98 77.2034 41.276C77.2034 40.572 77.0892 40.004 76.8607 39.572C76.6322 39.14 76.2894 38.924 75.8325 38.924C75.3836 38.924 75.0409 39.14 74.8042 39.572C74.5757 40.004 74.4615 40.572 74.4615 41.276C74.4615 41.98 74.5757 42.548 74.8042 42.98C75.0409 43.412 75.3836 43.628 75.8325 43.628Z" fill="#77BFA3"/>
<path d="M79.3265 43.856C79.2123 43.856 79.1552 43.792 79.1552 43.664C79.1552 43.536 79.2123 43.472 79.3265 43.472C79.5714 43.472 79.7305 43.428 79.8039 43.34C79.8774 43.252 79.9141 43.096 79.9141 42.872V39.668C79.9141 39.532 79.9059 39.424 79.8896 39.344C79.8733 39.256 79.808 39.2 79.6938 39.176C79.6366 39.16 79.5673 39.148 79.4857 39.14C79.4122 39.124 79.351 39.112 79.3021 39.104C79.196 39.096 79.1429 39.032 79.1429 38.912C79.1429 38.864 79.1552 38.82 79.1797 38.78C79.2123 38.74 79.2572 38.72 79.3143 38.72C79.3388 38.72 79.4081 38.72 79.5224 38.72C79.6448 38.712 79.7795 38.708 79.9263 38.708C80.0814 38.708 80.2242 38.708 80.3548 38.708C80.4853 38.7 80.571 38.696 80.6118 38.696C80.7995 38.696 80.8934 38.792 80.8934 38.984V39.416C80.8934 39.44 80.9015 39.456 80.9179 39.464C80.9423 39.464 80.9709 39.448 81.0035 39.416C81.1586 39.208 81.3667 39.012 81.6278 38.828C81.889 38.644 82.1868 38.552 82.5214 38.552C82.7825 38.552 83.0314 38.6 83.2681 38.696C83.5048 38.784 83.6965 38.948 83.8434 39.188C83.9985 39.428 84.076 39.772 84.076 40.22V42.848C84.076 43.08 84.1086 43.244 84.1739 43.34C84.2392 43.428 84.3616 43.472 84.5411 43.472C84.6554 43.472 84.7125 43.536 84.7125 43.664C84.7125 43.792 84.6554 43.856 84.5411 43.856C84.4595 43.856 84.3249 43.852 84.1372 43.844C83.9495 43.836 83.7618 43.832 83.5741 43.832C83.3783 43.832 83.1865 43.836 82.9988 43.844C82.8193 43.852 82.6846 43.856 82.5948 43.856C82.4806 43.856 82.4235 43.792 82.4235 43.664C82.4235 43.536 82.4806 43.472 82.5948 43.472C82.8233 43.472 82.958 43.428 82.9988 43.34C83.0478 43.252 83.0722 43.096 83.0722 42.872V40.364C83.0722 39.956 82.9947 39.668 82.8397 39.5C82.6928 39.324 82.4765 39.236 82.1909 39.236C81.9787 39.236 81.7747 39.3 81.5789 39.428C81.383 39.556 81.2239 39.728 81.1015 39.944C80.9791 40.152 80.9179 40.384 80.9179 40.64V42.848C80.9179 43.08 80.9464 43.244 81.0035 43.34C81.0607 43.428 81.1749 43.472 81.3463 43.472C81.4605 43.472 81.5177 43.536 81.5177 43.664C81.5177 43.792 81.4605 43.856 81.3463 43.856C81.2647 43.856 81.1382 43.852 80.9668 43.844C80.7954 43.836 80.6118 43.832 80.416 43.832C80.2201 43.832 80.0079 43.836 79.7795 43.844C79.5591 43.852 79.4081 43.856 79.3265 43.856Z" fill="#77BFA3"/>
<path d="M89.3959 44C89.0776 44 88.7512 43.956 88.4166 43.868C88.082 43.78 87.7801 43.684 87.5108 43.58C87.2497 43.476 87.0579 43.4 86.9355 43.352C86.7478 43.264 86.5846 43.284 86.4458 43.412C86.3887 43.468 86.3275 43.524 86.2622 43.58C86.1969 43.628 86.1439 43.672 86.1031 43.712C86.0215 43.776 85.944 43.796 85.8705 43.772C85.7971 43.74 85.7604 43.676 85.7604 43.58V41.396C85.7604 41.3 85.8134 41.244 85.9195 41.228C86.0256 41.204 86.0909 41.236 86.1153 41.324C86.2622 41.748 86.503 42.128 86.8375 42.464C87.1803 42.792 87.5802 43.048 88.0372 43.232C88.4941 43.416 88.9715 43.508 89.4693 43.508C89.8937 43.508 90.2568 43.42 90.5588 43.244C90.8689 43.06 91.1096 42.836 91.281 42.572C91.4523 42.3 91.538 42.036 91.538 41.78C91.538 41.388 91.436 41.076 91.232 40.844C91.028 40.612 90.7587 40.432 90.4241 40.304C90.0895 40.176 89.7223 40.072 89.3224 39.992C88.9226 39.904 88.5227 39.812 88.1228 39.716C87.723 39.612 87.3557 39.476 87.0212 39.308C86.6866 39.132 86.4173 38.892 86.2133 38.588C86.0093 38.284 85.9072 37.884 85.9072 37.388C85.9072 36.932 86.0174 36.524 86.2377 36.164C86.4662 35.804 86.7886 35.52 87.2048 35.312C87.621 35.104 88.1228 35 88.7104 35C88.9634 35 89.2245 35.036 89.4938 35.108C89.7713 35.172 90.0283 35.252 90.265 35.348C90.5016 35.436 90.6812 35.516 90.8036 35.588C90.9913 35.692 91.1463 35.696 91.2687 35.6C91.3095 35.56 91.3544 35.524 91.4034 35.492C91.4523 35.452 91.4931 35.42 91.5258 35.396C91.6074 35.34 91.6808 35.328 91.7461 35.36C91.8196 35.392 91.8563 35.456 91.8563 35.552V37.472C91.8563 37.568 91.8032 37.628 91.6972 37.652C91.5911 37.668 91.5217 37.636 91.4891 37.556C91.334 37.156 91.1218 36.796 90.8525 36.476C90.5832 36.156 90.2691 35.904 89.91 35.72C89.5509 35.528 89.1511 35.432 88.7104 35.432C88.3595 35.432 88.0371 35.504 87.7434 35.648C87.4496 35.784 87.2129 35.976 87.0334 36.224C86.862 36.472 86.7763 36.756 86.7763 37.076C86.7763 37.444 86.8783 37.736 87.0824 37.952C87.2864 38.16 87.5557 38.324 87.8903 38.444C88.2248 38.564 88.5921 38.668 88.9919 38.756C89.4 38.836 89.8039 38.928 90.2038 39.032C90.6118 39.136 90.9831 39.284 91.3177 39.476C91.6523 39.668 91.9216 39.928 92.1256 40.256C92.3296 40.584 92.4316 41.016 92.4316 41.552C92.4316 41.936 92.3418 42.28 92.1623 42.584C91.9828 42.888 91.7461 43.148 91.4523 43.364C91.1586 43.572 90.8321 43.732 90.4731 43.844C90.114 43.948 89.7549 44 89.3959 44Z" fill="#454545"/>
<path d="M95.9085 44C95.4352 44 95.0557 43.86 94.7701 43.58C94.4845 43.3 94.3417 42.892 94.3417 42.356V39.692C94.3417 39.532 94.3253 39.408 94.2927 39.32C94.2601 39.232 94.1866 39.18 94.0724 39.164C94.0071 39.156 93.9418 39.148 93.8765 39.14C93.8112 39.132 93.7541 39.124 93.7051 39.116C93.5991 39.092 93.546 39.024 93.546 38.912C93.546 38.864 93.5582 38.82 93.5827 38.78C93.6154 38.74 93.6603 38.72 93.7174 38.72C93.7419 38.72 93.8153 38.72 93.9377 38.72C94.0601 38.712 94.1989 38.708 94.3539 38.708C94.5171 38.708 94.664 38.708 94.7946 38.708C94.9333 38.7 95.0231 38.696 95.0639 38.696C95.2516 38.696 95.3454 38.792 95.3454 38.984V42.176C95.3454 42.552 95.4393 42.832 95.6269 43.016C95.8228 43.192 96.0799 43.28 96.3981 43.28C96.7898 43.28 97.0795 43.156 97.2672 42.908C97.4549 42.66 97.5488 42.372 97.5488 42.044V39.692C97.5488 39.532 97.5324 39.408 97.4998 39.32C97.4672 39.232 97.3937 39.18 97.2795 39.164C97.2142 39.156 97.1489 39.148 97.0836 39.14C97.0183 39.132 96.9612 39.124 96.9122 39.116C96.8062 39.092 96.7531 39.024 96.7531 38.912C96.7531 38.864 96.7653 38.82 96.7898 38.78C96.8225 38.74 96.8674 38.72 96.9245 38.72C96.949 38.72 97.0224 38.72 97.1448 38.72C97.2672 38.712 97.406 38.708 97.561 38.708C97.7242 38.708 97.8711 38.708 98.0017 38.708C98.1404 38.7 98.2302 38.696 98.271 38.696C98.4587 38.696 98.5525 38.792 98.5525 38.984V42.884C98.5525 43.068 98.5688 43.192 98.6015 43.256C98.6423 43.312 98.7157 43.356 98.8218 43.388C98.8626 43.396 98.9034 43.404 98.9442 43.412C98.9932 43.42 99.0381 43.432 99.0789 43.448C99.185 43.472 99.238 43.536 99.238 43.64C99.238 43.76 99.1809 43.828 99.0666 43.844C99.034 43.844 98.932 43.844 98.7606 43.844C98.5892 43.844 98.4138 43.848 98.2343 43.856C98.0547 43.856 97.9323 43.856 97.867 43.856C97.6875 43.856 97.5977 43.772 97.5977 43.604C97.5896 43.564 97.5814 43.504 97.5732 43.424C97.5732 43.336 97.5732 43.268 97.5732 43.22C97.5569 43.108 97.508 43.1 97.4264 43.196C97.3692 43.268 97.2754 43.368 97.1448 43.496C97.0224 43.624 96.8592 43.74 96.6552 43.844C96.4593 43.948 96.2104 44 95.9085 44Z" fill="#454545"/>
<path d="M103.016 44C102.617 44 102.298 43.924 102.062 43.772C101.825 43.612 101.65 43.468 101.535 43.34C101.478 43.276 101.433 43.248 101.401 43.256C101.368 43.256 101.335 43.276 101.303 43.316C101.27 43.364 101.205 43.456 101.107 43.592C101.017 43.728 100.952 43.824 100.911 43.88C100.878 43.936 100.813 43.952 100.715 43.928C100.625 43.904 100.585 43.852 100.593 43.772C100.601 43.684 100.621 43.5 100.654 43.22C100.687 42.932 100.703 42.612 100.703 42.26V36.14C100.703 35.94 100.682 35.808 100.642 35.744C100.609 35.672 100.54 35.632 100.434 35.624C100.376 35.608 100.299 35.596 100.201 35.588C100.103 35.572 100.03 35.56 99.9807 35.552C99.8746 35.544 99.8215 35.48 99.8215 35.36C99.8215 35.312 99.8338 35.268 99.8583 35.228C99.8909 35.188 99.9358 35.168 99.9929 35.168C100.017 35.168 100.095 35.168 100.225 35.168C100.356 35.16 100.507 35.156 100.678 35.156C100.85 35.156 101.005 35.156 101.144 35.156C101.29 35.148 101.388 35.144 101.437 35.144C101.617 35.144 101.707 35.24 101.707 35.432V39.128C101.707 39.168 101.723 39.196 101.756 39.212C101.796 39.22 101.837 39.196 101.878 39.14C101.976 39.036 102.135 38.912 102.355 38.768C102.576 38.624 102.882 38.552 103.273 38.552C103.494 38.552 103.726 38.596 103.971 38.684C104.224 38.764 104.457 38.904 104.669 39.104C104.881 39.304 105.052 39.576 105.183 39.92C105.322 40.256 105.391 40.684 105.391 41.204C105.391 41.732 105.31 42.176 105.146 42.536C104.991 42.888 104.787 43.172 104.534 43.388C104.281 43.604 104.02 43.76 103.751 43.856C103.482 43.952 103.237 44 103.016 44ZM102.931 43.592C103.224 43.592 103.469 43.52 103.665 43.376C103.869 43.232 104.02 42.988 104.118 42.644C104.224 42.292 104.277 41.812 104.277 41.204C104.277 40.596 104.22 40.132 104.106 39.812C104 39.492 103.853 39.272 103.665 39.152C103.477 39.024 103.265 38.96 103.029 38.96C102.841 38.96 102.641 39.016 102.429 39.128C102.225 39.24 102.049 39.42 101.902 39.668C101.764 39.916 101.694 40.244 101.694 40.652V41.744C101.694 42.4 101.813 42.872 102.049 43.16C102.286 43.448 102.58 43.592 102.931 43.592Z" fill="#454545"/>
<path d="M108.885 44C108.42 44 107.992 43.876 107.6 43.628C107.216 43.38 106.91 43.052 106.682 42.644C106.453 42.228 106.339 41.772 106.339 41.276C106.339 40.78 106.453 40.328 106.682 39.92C106.91 39.504 107.216 39.172 107.6 38.924C107.992 38.676 108.42 38.552 108.885 38.552C109.358 38.552 109.787 38.676 110.17 38.924C110.562 39.172 110.872 39.504 111.101 39.92C111.329 40.328 111.443 40.78 111.443 41.276C111.443 41.772 111.329 42.228 111.101 42.644C110.872 43.052 110.562 43.38 110.17 43.628C109.787 43.876 109.358 44 108.885 44ZM108.885 43.628C109.342 43.628 109.685 43.412 109.913 42.98C110.142 42.548 110.256 41.98 110.256 41.276C110.256 40.572 110.142 40.004 109.913 39.572C109.685 39.14 109.342 38.924 108.885 38.924C108.436 38.924 108.094 39.14 107.857 39.572C107.628 40.004 107.514 40.572 107.514 41.276C107.514 41.98 107.628 42.548 107.857 42.98C108.094 43.412 108.436 43.628 108.885 43.628Z" fill="#454545"/>
<path d="M111.99 43.856C111.941 43.856 111.901 43.836 111.868 43.796C111.835 43.756 111.819 43.712 111.819 43.664C111.819 43.608 111.835 43.56 111.868 43.52C111.901 43.48 111.941 43.46 111.99 43.46C112.17 43.46 112.345 43.416 112.517 43.328C112.688 43.232 112.876 43.056 113.08 42.8C113.365 42.432 113.582 42.156 113.729 41.972C113.875 41.78 113.973 41.648 114.022 41.576C114.071 41.504 114.096 41.468 114.096 41.468C114.145 41.404 114.153 41.348 114.12 41.3C114.088 41.252 114.01 41.152 113.888 41C113.773 40.848 113.647 40.684 113.508 40.508C113.37 40.324 113.243 40.16 113.129 40.016C113.023 39.872 112.957 39.784 112.933 39.752C112.762 39.536 112.615 39.372 112.492 39.26C112.37 39.148 112.223 39.092 112.052 39.092C111.994 39.092 111.95 39.072 111.917 39.032C111.892 38.992 111.88 38.944 111.88 38.888C111.88 38.84 111.892 38.796 111.917 38.756C111.95 38.716 111.994 38.696 112.052 38.696C112.141 38.696 112.264 38.704 112.419 38.72C112.582 38.728 112.762 38.732 112.957 38.732C113.153 38.732 113.353 38.728 113.557 38.72C113.761 38.704 113.904 38.696 113.986 38.696C114.043 38.696 114.084 38.716 114.108 38.756C114.141 38.796 114.157 38.84 114.157 38.888C114.157 38.944 114.141 38.992 114.108 39.032C114.084 39.072 114.043 39.092 113.986 39.092C113.888 39.092 113.822 39.12 113.79 39.176C113.765 39.232 113.782 39.3 113.839 39.38L114.708 40.532C114.74 40.572 114.777 40.568 114.818 40.52C114.859 40.472 114.924 40.388 115.014 40.268C115.104 40.148 115.193 40.028 115.283 39.908C115.373 39.788 115.426 39.716 115.442 39.692C115.557 39.532 115.597 39.392 115.565 39.272C115.532 39.152 115.414 39.092 115.21 39.092C115.153 39.092 115.108 39.072 115.075 39.032C115.051 38.992 115.038 38.944 115.038 38.888C115.038 38.84 115.051 38.796 115.075 38.756C115.108 38.716 115.153 38.696 115.21 38.696C115.291 38.696 115.406 38.704 115.552 38.72C115.699 38.728 115.871 38.732 116.067 38.732C116.262 38.732 116.43 38.728 116.568 38.72C116.707 38.704 116.817 38.696 116.899 38.696C116.948 38.696 116.989 38.716 117.021 38.756C117.054 38.796 117.07 38.84 117.07 38.888C117.07 38.944 117.054 38.992 117.021 39.032C116.989 39.072 116.948 39.092 116.899 39.092C116.736 39.092 116.564 39.152 116.385 39.272C116.213 39.384 116.03 39.572 115.834 39.836C115.801 39.884 115.732 39.976 115.626 40.112C115.52 40.248 115.414 40.388 115.308 40.532C115.202 40.668 115.12 40.772 115.063 40.844C115.022 40.9 115.022 40.952 115.063 41C115.104 41.056 115.189 41.172 115.32 41.348C115.45 41.516 115.593 41.704 115.748 41.912C115.912 42.12 116.054 42.308 116.177 42.476C116.307 42.644 116.389 42.748 116.422 42.788C116.609 43.028 116.777 43.2 116.923 43.304C117.07 43.408 117.205 43.46 117.327 43.46C117.385 43.46 117.425 43.48 117.45 43.52C117.482 43.56 117.499 43.608 117.499 43.664C117.499 43.712 117.482 43.756 117.45 43.796C117.425 43.836 117.385 43.856 117.327 43.856C117.246 43.856 117.099 43.852 116.887 43.844C116.675 43.836 116.471 43.832 116.275 43.832C116.079 43.832 115.879 43.836 115.675 43.844C115.471 43.852 115.328 43.856 115.246 43.856C115.189 43.856 115.144 43.836 115.112 43.796C115.087 43.756 115.075 43.712 115.075 43.664C115.075 43.608 115.087 43.56 115.112 43.52C115.144 43.48 115.189 43.46 115.246 43.46C115.385 43.46 115.471 43.42 115.504 43.34C115.536 43.252 115.52 43.164 115.455 43.076C115.43 43.044 115.369 42.968 115.271 42.848C115.181 42.72 115.075 42.576 114.953 42.416C114.838 42.256 114.732 42.116 114.634 41.996C114.545 41.868 114.488 41.788 114.463 41.756C114.43 41.708 114.394 41.712 114.353 41.768C114.32 41.816 114.251 41.912 114.145 42.056C114.039 42.192 113.933 42.328 113.827 42.464C113.72 42.6 113.651 42.688 113.618 42.728C113.512 42.88 113.472 43.012 113.496 43.124C113.529 43.236 113.59 43.32 113.68 43.376C113.778 43.432 113.867 43.46 113.949 43.46C114.006 43.46 114.047 43.48 114.071 43.52C114.104 43.56 114.12 43.608 114.12 43.664C114.12 43.712 114.104 43.756 114.071 43.796C114.047 43.836 114.006 43.856 113.949 43.856C113.867 43.856 113.724 43.852 113.52 43.844C113.325 43.836 113.133 43.832 112.945 43.832C112.749 43.832 112.562 43.836 112.382 43.844C112.211 43.852 112.08 43.856 111.99 43.856Z" fill="#454545"/>
<path d="M120.349 44C119.884 44 119.455 43.876 119.064 43.628C118.68 43.38 118.374 43.052 118.146 42.644C117.917 42.228 117.803 41.772 117.803 41.276C117.803 40.78 117.917 40.328 118.146 39.92C118.374 39.504 118.68 39.172 119.064 38.924C119.455 38.676 119.884 38.552 120.349 38.552C120.822 38.552 121.251 38.676 121.634 38.924C122.026 39.172 122.336 39.504 122.565 39.92C122.793 40.328 122.907 40.78 122.907 41.276C122.907 41.772 122.793 42.228 122.565 42.644C122.336 43.052 122.026 43.38 121.634 43.628C121.251 43.876 120.822 44 120.349 44ZM120.349 43.628C120.806 43.628 121.149 43.412 121.377 42.98C121.606 42.548 121.72 41.98 121.72 41.276C121.72 40.572 121.606 40.004 121.377 39.572C121.149 39.14 120.806 38.924 120.349 38.924C119.9 38.924 119.557 39.14 119.321 39.572C119.092 40.004 118.978 40.572 118.978 41.276C118.978 41.98 119.092 42.548 119.321 42.98C119.557 43.412 119.9 43.628 120.349 43.628Z" fill="#454545"/>
<path d="M123.843 43.856C123.729 43.856 123.672 43.792 123.672 43.664C123.672 43.536 123.729 43.472 123.843 43.472C124.088 43.472 124.247 43.428 124.32 43.34C124.394 43.252 124.431 43.096 124.431 42.872V39.668C124.431 39.532 124.422 39.424 124.406 39.344C124.39 39.256 124.325 39.2 124.21 39.176C124.153 39.16 124.084 39.148 124.002 39.14C123.929 39.124 123.868 39.112 123.819 39.104C123.712 39.096 123.659 39.032 123.659 38.912C123.659 38.864 123.672 38.82 123.696 38.78C123.729 38.74 123.774 38.72 123.831 38.72C123.855 38.72 123.925 38.72 124.039 38.72C124.161 38.712 124.296 38.708 124.443 38.708C124.598 38.708 124.741 38.708 124.871 38.708C125.002 38.7 125.088 38.696 125.128 38.696C125.316 38.696 125.41 38.792 125.41 38.984V39.416C125.41 39.44 125.418 39.456 125.434 39.464C125.459 39.464 125.487 39.448 125.52 39.416C125.675 39.208 125.883 39.012 126.144 38.828C126.405 38.644 126.703 38.552 127.038 38.552C127.299 38.552 127.548 38.6 127.785 38.696C128.021 38.784 128.213 38.948 128.36 39.188C128.515 39.428 128.593 39.772 128.593 40.22V42.848C128.593 43.08 128.625 43.244 128.69 43.34C128.756 43.428 128.878 43.472 129.058 43.472C129.172 43.472 129.229 43.536 129.229 43.664C129.229 43.792 129.172 43.856 129.058 43.856C128.976 43.856 128.841 43.852 128.654 43.844C128.466 43.836 128.278 43.832 128.091 43.832C127.895 43.832 127.703 43.836 127.515 43.844C127.336 43.852 127.201 43.856 127.111 43.856C126.997 43.856 126.94 43.792 126.94 43.664C126.94 43.536 126.997 43.472 127.111 43.472C127.34 43.472 127.475 43.428 127.515 43.34C127.564 43.252 127.589 43.096 127.589 42.872V40.364C127.589 39.956 127.511 39.668 127.356 39.5C127.209 39.324 126.993 39.236 126.707 39.236C126.495 39.236 126.291 39.3 126.095 39.428C125.9 39.556 125.74 39.728 125.618 39.944C125.496 40.152 125.434 40.384 125.434 40.64V42.848C125.434 43.08 125.463 43.244 125.52 43.34C125.577 43.428 125.691 43.472 125.863 43.472C125.977 43.472 126.034 43.536 126.034 43.664C126.034 43.792 125.977 43.856 125.863 43.856C125.781 43.856 125.655 43.852 125.483 43.844C125.312 43.836 125.128 43.832 124.932 43.832C124.737 43.832 124.524 43.836 124.296 43.844C124.076 43.852 123.925 43.856 123.843 43.856Z" fill="#454545"/>
<path d="M132.605 44C132.075 44 131.606 43.884 131.198 43.652C130.798 43.42 130.488 43.108 130.267 42.716C130.047 42.316 129.937 41.864 129.937 41.36C129.937 41.008 129.998 40.668 130.121 40.34C130.251 40.004 130.431 39.704 130.659 39.44C130.896 39.168 131.173 38.952 131.492 38.792C131.81 38.632 132.157 38.552 132.532 38.552C132.932 38.552 133.275 38.636 133.56 38.804C133.846 38.972 134.083 39.188 134.27 39.452C134.458 39.708 134.597 39.98 134.686 40.268C134.776 40.548 134.821 40.804 134.821 41.036C134.821 41.156 134.748 41.216 134.601 41.216H131.308C131.226 41.216 131.173 41.228 131.149 41.252C131.124 41.276 131.112 41.32 131.112 41.384C131.112 41.912 131.186 42.328 131.332 42.632C131.479 42.936 131.675 43.152 131.92 43.28C132.165 43.408 132.43 43.472 132.716 43.472C133.009 43.472 133.266 43.42 133.487 43.316C133.707 43.212 133.891 43.092 134.038 42.956C134.185 42.82 134.299 42.7 134.38 42.596C134.462 42.484 134.56 42.468 134.674 42.548C134.78 42.612 134.801 42.7 134.735 42.812C134.654 42.948 134.519 43.112 134.331 43.304C134.152 43.488 133.919 43.652 133.634 43.796C133.348 43.932 133.005 44 132.605 44ZM131.345 40.748H133.389C133.544 40.748 133.621 40.68 133.621 40.544C133.621 40.32 133.589 40.084 133.524 39.836C133.458 39.588 133.344 39.38 133.181 39.212C133.018 39.036 132.793 38.948 132.508 38.948C132.263 38.948 132.051 39.028 131.871 39.188C131.7 39.348 131.557 39.552 131.443 39.8C131.337 40.048 131.255 40.312 131.198 40.592C131.173 40.696 131.222 40.748 131.345 40.748Z" fill="#454545"/>
<path d="M135.83 43.856C135.716 43.856 135.659 43.792 135.659 43.664C135.659 43.608 135.671 43.56 135.695 43.52C135.728 43.48 135.773 43.46 135.83 43.46C136.116 43.46 136.344 43.344 136.515 43.112C136.687 42.872 136.773 42.452 136.773 41.852V36.368C136.773 36 136.687 35.772 136.515 35.684C136.344 35.588 136.132 35.54 135.879 35.54C135.822 35.54 135.777 35.52 135.744 35.48C135.72 35.44 135.708 35.392 135.708 35.336C135.708 35.288 135.72 35.244 135.744 35.204C135.777 35.164 135.822 35.144 135.879 35.144C135.944 35.144 136.124 35.152 136.418 35.168C136.719 35.176 137.177 35.18 137.789 35.18C137.944 35.18 138.062 35.208 138.144 35.264C138.225 35.312 138.282 35.388 138.315 35.492C138.331 35.54 138.384 35.688 138.474 35.936C138.564 36.176 138.674 36.48 138.805 36.848C138.943 37.216 139.09 37.612 139.245 38.036C139.4 38.46 139.555 38.884 139.71 39.308C139.865 39.724 140.008 40.108 140.139 40.46C140.269 40.812 140.371 41.096 140.445 41.312C140.526 41.528 140.571 41.644 140.579 41.66C140.596 41.7 140.62 41.72 140.653 41.72C140.686 41.712 140.706 41.692 140.714 41.66C140.73 41.612 140.779 41.472 140.861 41.24C140.943 41.008 141.045 40.716 141.167 40.364C141.298 40.004 141.436 39.616 141.583 39.2C141.738 38.784 141.889 38.372 142.036 37.964C142.183 37.548 142.318 37.164 142.44 36.812C142.571 36.46 142.677 36.172 142.758 35.948C142.84 35.716 142.889 35.58 142.905 35.54C142.954 35.404 143.024 35.312 143.113 35.264C143.211 35.208 143.325 35.18 143.456 35.18C144.06 35.18 144.492 35.176 144.754 35.168C145.023 35.152 145.186 35.144 145.243 35.144C145.3 35.144 145.341 35.164 145.366 35.204C145.398 35.244 145.415 35.288 145.415 35.336C145.415 35.392 145.398 35.44 145.366 35.48C145.341 35.52 145.3 35.54 145.243 35.54C144.998 35.54 144.803 35.588 144.656 35.684C144.509 35.78 144.435 35.972 144.435 36.26V42.692C144.435 43.012 144.497 43.22 144.619 43.316C144.741 43.412 144.929 43.46 145.182 43.46C145.239 43.46 145.28 43.48 145.304 43.52C145.337 43.56 145.353 43.608 145.353 43.664C145.353 43.792 145.296 43.856 145.182 43.856C145.1 43.856 144.937 43.852 144.692 43.844C144.448 43.836 144.137 43.832 143.762 43.832C143.387 43.832 143.081 43.836 142.844 43.844C142.607 43.852 142.444 43.856 142.354 43.856C142.24 43.856 142.183 43.792 142.183 43.664C142.183 43.608 142.199 43.56 142.232 43.52C142.265 43.48 142.305 43.46 142.354 43.46C142.664 43.46 142.905 43.42 143.077 43.34C143.256 43.252 143.346 43.036 143.346 42.692V35.996C143.346 35.948 143.325 35.92 143.285 35.912C143.252 35.904 143.228 35.92 143.211 35.96C143.203 35.992 143.146 36.148 143.04 36.428C142.942 36.7 142.815 37.052 142.66 37.484C142.505 37.916 142.334 38.392 142.146 38.912C141.967 39.424 141.783 39.94 141.595 40.46C141.408 40.98 141.232 41.464 141.069 41.912C140.914 42.352 140.783 42.716 140.677 43.004C140.579 43.292 140.522 43.46 140.506 43.508C140.473 43.588 140.42 43.628 140.347 43.628C140.273 43.628 140.224 43.592 140.2 43.52C140.192 43.496 140.135 43.348 140.029 43.076C139.923 42.796 139.784 42.44 139.612 42.008C139.441 41.568 139.253 41.092 139.049 40.58C138.853 40.068 138.654 39.56 138.45 39.056C138.254 38.544 138.07 38.076 137.899 37.652C137.735 37.22 137.601 36.876 137.495 36.62C137.397 36.356 137.348 36.224 137.348 36.224C137.34 36.2 137.319 36.192 137.287 36.2C137.254 36.2 137.238 36.22 137.238 36.26V41.84C137.238 42.256 137.287 42.58 137.385 42.812C137.491 43.044 137.621 43.212 137.776 43.316C137.94 43.412 138.107 43.46 138.278 43.46C138.335 43.46 138.376 43.48 138.401 43.52C138.433 43.56 138.45 43.608 138.45 43.664C138.45 43.792 138.392 43.856 138.278 43.856C138.197 43.856 138.062 43.852 137.874 43.844C137.695 43.836 137.421 43.832 137.054 43.832C136.63 43.832 136.34 43.836 136.185 43.844C136.038 43.852 135.92 43.856 135.83 43.856Z" fill="#454545"/>
<path d="M146.178 43.856C146.121 43.856 146.076 43.836 146.043 43.796C146.019 43.756 146.007 43.712 146.007 43.664C146.007 43.608 146.019 43.56 146.043 43.52C146.076 43.48 146.121 43.46 146.178 43.46C146.537 43.46 146.811 43.412 146.998 43.316C147.194 43.22 147.292 43.024 147.292 42.728V36.248C147.292 35.944 147.194 35.752 146.998 35.672C146.811 35.584 146.537 35.54 146.178 35.54C146.121 35.54 146.076 35.52 146.043 35.48C146.019 35.44 146.007 35.392 146.007 35.336C146.007 35.288 146.019 35.244 146.043 35.204C146.076 35.164 146.121 35.144 146.178 35.144C146.243 35.144 146.419 35.148 146.704 35.156C146.99 35.164 147.365 35.168 147.831 35.168C148.377 35.168 148.806 35.164 149.116 35.156C149.434 35.148 149.683 35.144 149.863 35.144C150.385 35.144 150.891 35.224 151.38 35.384C151.87 35.536 152.311 35.784 152.702 36.128C153.102 36.472 153.417 36.924 153.645 37.484C153.882 38.036 154 38.708 154 39.5C154 40.268 153.882 40.928 153.645 41.48C153.417 42.032 153.102 42.484 152.702 42.836C152.311 43.188 151.87 43.448 151.38 43.616C150.891 43.776 150.385 43.856 149.863 43.856C149.683 43.856 149.43 43.852 149.104 43.844C148.785 43.836 148.357 43.832 147.818 43.832C147.345 43.832 146.974 43.836 146.704 43.844C146.443 43.852 146.268 43.856 146.178 43.856ZM148.639 43.424H149.924C150.258 43.424 150.589 43.368 150.915 43.256C151.25 43.136 151.552 42.932 151.821 42.644C152.09 42.348 152.307 41.948 152.47 41.444C152.633 40.932 152.715 40.284 152.715 39.5C152.715 38.692 152.633 38.032 152.47 37.52C152.307 37.008 152.09 36.612 151.821 36.332C151.552 36.044 151.25 35.848 150.915 35.744C150.589 35.632 150.258 35.576 149.924 35.576H148.639C148.467 35.576 148.381 35.656 148.381 35.816V43.184C148.381 43.344 148.467 43.424 148.639 43.424Z" fill="#454545"/>
</svg>
