<svg width="167" height="50" viewBox="0 0 167 50" fill="none" xmlns="http://www.w3.org/2000/svg">
<path d="M36.405 8.19108C35.3318 8.42668 34.1963 9.04186 33.7346 9.64394C32.7488 10.8743 32.7612 13.0209 33.7346 14.225C34.1339 14.7093 35.1197 15.3638 36.1554 15.8481C38.3017 16.8428 38.6761 17.0391 39.0005 17.3533C39.6494 18.0208 39.3749 18.9632 38.4265 19.3428C37.6029 19.67 34.7204 19.4082 33.4351 18.8847C33.2354 18.8061 33.2105 18.8978 33.2479 20.0888L33.2853 21.3846L34.3335 21.5417C36.4674 21.8558 37.3533 21.882 38.6511 21.6464C41.1468 21.2014 42.5194 19.9056 42.6817 17.8376C42.7316 17.1177 42.6941 16.9082 42.3572 16.1753C41.8331 14.9842 41.3215 14.6046 37.8275 12.89C36.5297 12.2486 36.2178 11.9738 36.2178 11.4502C36.2178 10.8219 36.667 10.3638 37.4157 10.246C38.3391 10.1021 40.2234 10.2853 40.9846 10.5863C41.3465 10.7303 41.6584 10.8481 41.6834 10.8481C41.6959 10.8481 41.6959 10.3115 41.6834 9.64394L41.6459 8.43977L40.1485 8.20417C38.3142 7.94239 37.5405 7.9293 36.405 8.19108Z" fill="#009999"/>
<path d="M111.214 8.09897C109.704 8.37383 108.618 8.96283 107.982 9.86596C107.483 10.5858 107.283 11.7508 107.483 12.824C107.595 13.4523 107.732 13.7403 108.169 14.2376C108.718 14.879 108.818 14.9444 112.549 16.8292C113.934 17.5229 114.159 18.3737 113.173 19.1459C112.474 19.6826 109.404 19.5386 107.807 18.8973C107.607 18.8056 107.582 18.8973 107.62 20.0883L107.657 21.3711L108.78 21.5543C110.315 21.803 112.462 21.8161 113.46 21.5936C114.346 21.3972 115.456 20.8475 115.968 20.3632C116.143 20.1931 116.455 19.7742 116.654 19.4208C116.966 18.858 117.004 18.6486 117.016 17.6669C117.016 16.6591 116.979 16.4758 116.667 15.9261C116.218 15.1146 115.344 14.4471 113.647 13.6094C111.301 12.4576 110.914 12.222 110.74 11.8555C110.515 11.3712 110.727 10.6906 111.176 10.4419C111.713 10.1408 114.458 10.2194 115.369 10.5597L116.093 10.8345L116.055 9.63036L116.018 8.42619L114.583 8.20368C113.036 7.96808 112.1 7.9419 111.214 8.09897Z" fill="#009999"/>
<path d="M44.8278 14.8405V21.4504H46.5748H48.3217V14.8405V8.23066H46.5748H44.8278V14.8405Z" fill="#009999"/>
<path d="M51.691 14.8405V21.4504H56.3081H60.9251V20.2724V19.0944H57.9927H55.0478L55.0852 17.419L55.1226 15.7567L57.5934 15.7175L60.0516 15.6913V14.6442V13.5971H57.5559H55.0602V12.0264V10.4558H57.9303H60.8004V9.34322V8.23066H56.2457H51.691V14.8405Z" fill="#009999"/>
<path d="M63.421 14.8395V21.4494H64.6065H65.7919V16.7767C65.7919 12.7584 65.8169 12.1301 65.9666 12.2872C66.0665 12.3919 66.2287 12.7453 66.341 13.0725C66.4408 13.3997 66.7029 14.1065 66.9275 14.6432C67.1396 15.1798 67.4391 15.9783 67.6013 16.4102C67.9757 17.4442 68.8866 19.8133 69.1611 20.4677C69.2734 20.7557 69.4232 21.1222 69.4606 21.2792C69.548 21.5672 69.6228 21.5803 70.6586 21.5803H71.7692L72.0187 20.8866C72.156 20.5201 72.443 19.7609 72.6676 19.2243C72.8797 18.6876 73.1543 17.9808 73.2791 17.6536C73.4038 17.3264 73.8156 16.24 74.2149 15.2322C74.6018 14.2243 75.026 13.138 75.1508 12.8108C75.6125 11.6066 75.65 11.9207 75.65 16.7898V21.4494H77.2722H78.8944V14.8395V8.22966H76.7481L74.5893 8.24274L74.2524 9.05425C73.8032 10.1799 72.9297 12.4704 72.6177 13.3343C72.4804 13.727 72.3307 14.1065 72.2808 14.1851C72.2309 14.2505 72.1186 14.5516 72.0312 14.8264C71.8066 15.5725 71.2825 16.7374 71.1702 16.7374C71.1203 16.7374 71.008 16.5149 70.9206 16.24C70.8457 15.9783 70.6586 15.494 70.5338 15.1667C70.409 14.8395 69.9847 13.727 69.5979 12.6799C69.2111 11.6328 68.7868 10.5202 68.6495 10.193C68.5247 9.86576 68.3126 9.30294 68.1878 8.94954L67.9632 8.2951L65.6921 8.25583L63.421 8.22966V14.8395Z" fill="#009999"/>
<path d="M82.2635 14.8405V21.4504H86.8806H91.4977V20.2724V19.0944H88.5652H85.6328V17.3929V15.6913H88.1285H90.6242V14.6442V13.5971H88.1285H85.6328V12.0264V10.4558H88.5028H91.3729V9.34322V8.23066H86.8182H82.2635V14.8405Z" fill="#009999"/>
<path d="M93.9935 14.8405V21.4504H95.179H96.3644V17.0002C96.3644 14.1992 96.4144 12.55 96.4892 12.55C96.5516 12.55 96.8885 13.1259 97.213 13.8196C97.5499 14.5264 98.2362 15.9269 98.7478 16.9347C99.247 17.9426 99.9458 19.3562 100.308 20.0761L100.957 21.3849L102.966 21.4242L104.975 21.4504V14.8405V8.23066H103.789H102.604V12.6023C102.604 15.3117 102.554 17.0133 102.479 17.0656C102.417 17.1049 102.229 16.8562 102.067 16.5159C101.905 16.1756 101.019 14.3562 100.108 12.4845C99.1846 10.6128 98.3485 8.88511 98.2487 8.64951L98.0615 8.23066H96.0275H93.9935V14.8405Z" fill="#009999"/>
<path d="M51.7037 28.085C51.5539 28.4122 50.7428 32.2865 50.5556 33.6085C50.3061 35.4933 50.5556 36.7629 51.192 36.7629C51.3667 36.7629 51.4291 36.5404 51.5539 35.6111C51.766 34.0142 52.1404 32.1425 52.6395 30.2316C52.8766 29.3415 53.0389 28.5038 53.0014 28.386C52.8642 27.9148 51.9033 27.6923 51.7037 28.085Z" fill="black"/>
<path d="M102.853 28.2948C102.267 28.6089 101.381 30.5723 100.857 32.7319C100.732 33.2031 100.645 33.3602 100.457 33.3602C100.046 33.3602 98.5232 33.7659 98.3111 33.923C98.0241 34.1455 98.1614 34.4727 98.6356 34.6822C98.9475 34.8131 99.1222 34.8 99.6962 34.6167C100.071 34.4858 100.408 34.4073 100.432 34.4466C100.47 34.4727 100.432 35.1403 100.358 35.9256C100.17 38.0984 100.457 39.3811 101.131 39.3811C101.331 39.3811 101.356 39.2633 101.356 38.4125C101.356 37.1167 101.705 34.3811 101.892 34.1848C101.98 34.0932 102.404 33.9885 102.853 33.9361L103.677 33.8576L103.627 34.3942C103.527 35.4806 104.525 36.4099 105.836 36.423C107.782 36.4492 108.568 34.3549 107.096 33.0591C106.534 32.5487 105.911 32.4701 105.299 32.8235C104.862 33.0591 104.575 33.0984 103.452 33.0984C102.354 33.0984 102.105 33.0591 102.105 32.9152C102.105 32.5879 102.716 30.7162 103.016 30.088C103.352 29.4204 103.689 29.2896 104.039 29.6953C104.326 30.0225 104.438 30.0225 104.6 29.6953C104.825 29.2503 104.475 28.5959 103.864 28.3472C103.253 28.0854 103.253 28.0854 102.853 28.2948ZM106.647 33.9099C106.946 34.3549 106.884 34.7738 106.485 35.2057C105.786 35.9256 104.862 35.5591 105.025 34.6167C105.187 33.7398 106.235 33.2947 106.647 33.9099Z" fill="black"/>
<path d="M89.4138 28.3604C89.2016 28.4913 88.715 29.9311 88.428 31.1615C88.2408 32.0253 88.1659 32.1824 87.9538 32.1824C87.804 32.1824 87.6169 32.2347 87.517 32.3002C87.2675 32.4703 87.517 33.0462 87.8664 33.164C88.1035 33.2426 88.1285 33.3473 88.1285 34.1457C88.1285 34.6431 88.1784 35.1928 88.2408 35.363C88.4155 35.8342 88.8772 36.2399 89.2266 36.2399C89.4886 36.2399 89.5136 36.2007 89.4387 35.9389C89.3888 35.7818 89.3139 35.1143 89.289 34.4598C89.2266 33.0986 89.2141 33.0986 90.412 33.0986C90.9861 33.0986 90.9985 33.1117 90.9985 33.4913C90.9985 34.3813 91.7597 35.1928 92.5958 35.1928C92.8079 35.1928 92.9951 35.219 92.9951 35.2583C92.9951 35.3892 91.5725 38.8184 91.1608 39.7085C90.9112 40.2058 90.4245 41.109 90.0502 41.698C89.6758 42.2739 89.3763 42.7974 89.3763 42.8367C89.3763 42.876 89.5011 42.9152 89.6633 42.9152C89.838 42.9152 90.1625 42.6796 90.5119 42.3001C91.4977 41.2137 92.0218 40.3236 93.5442 37.2347C94.5923 35.1012 95.0291 34.3682 95.7653 33.5305C96.3269 32.8761 96.3518 32.6667 95.9276 32.4703C95.3161 32.1824 95.104 32.2871 94.0433 33.3604C93.4069 34.0148 92.9202 34.4075 92.758 34.4075C92.4211 34.4075 92.2339 33.9363 92.3337 33.3211C92.4336 32.6667 92.0966 32.4834 90.6616 32.3656C89.7632 32.3002 89.5011 32.2347 89.5011 32.0908C89.5011 31.685 89.9129 30.2583 90.2623 29.4468C90.6117 28.6484 90.6242 28.583 90.4245 28.4259C90.175 28.2426 89.6509 28.2034 89.4138 28.3604Z" fill="black"/>
<path d="M125.327 29.0411C124.928 29.6301 124.279 31.3709 123.967 32.7322L123.767 33.6091L123.206 33.6484C122.707 33.6877 122.632 33.7269 122.669 33.9494C122.732 34.3159 123.068 34.6693 123.355 34.6693C123.568 34.6693 123.593 34.7348 123.53 35.1536C123.355 36.2662 123.293 37.8237 123.38 38.5305C123.443 39.1195 123.543 39.3813 123.83 39.6824C124.391 40.2714 124.503 40.1143 124.466 38.8447C124.429 37.863 124.728 34.7217 124.865 34.5777C124.94 34.4861 126.226 34.1458 126.475 34.1458C126.612 34.1458 126.687 34.2505 126.687 34.4076C126.687 35.1536 127.523 36.0567 128.646 36.5018C129.632 36.9075 131.155 36.9337 131.853 36.5672C132.714 36.1091 132.577 35.9913 131.317 36.0698C130.581 36.1222 130.007 36.096 129.632 35.9782C128.983 35.795 128.135 35.1144 128.434 35.0227C129.982 34.5123 130.431 34.185 130.431 33.5568C130.431 33.0332 129.907 32.4966 129.245 32.3657C128.771 32.2741 127.673 32.6013 127.436 32.9023C127.274 33.1118 126.612 33.3212 125.652 33.4913L125.04 33.583L125.127 33.1379C125.252 32.4311 125.926 30.3238 126.138 29.9835C126.363 29.617 126.762 29.6039 126.937 29.9704C127.049 30.1799 127.112 30.206 127.261 30.0751C127.823 29.5909 126.999 28.5176 126.076 28.5176C125.776 28.5176 125.614 28.6223 125.327 29.0411ZM129.283 33.4521C129.333 33.7662 128.983 34.0672 128.409 34.2112C128.135 34.2898 128.06 34.2636 128.06 34.0803C128.06 33.3081 129.183 32.7322 129.283 33.4521Z" fill="black"/>
<path d="M117.49 29.1068C116.916 29.5257 115.956 32.8633 115.956 34.4471C115.956 35.468 116.143 35.9 116.754 36.345C117.665 36.9994 118.576 36.7638 119.624 35.5858L120.186 34.9576L120.273 35.4288C120.385 36.0832 120.647 36.5937 120.959 36.7638C121.396 37.0125 121.496 36.8685 121.459 35.9785C121.446 35.4942 121.521 34.7743 121.646 34.2638C121.858 33.4 121.858 33.3607 121.633 33.0989C121.259 32.667 120.785 32.7586 120.423 33.3345C119.549 34.7089 118.039 36.0047 117.528 35.8083C117.415 35.756 117.266 35.5596 117.191 35.3633C116.916 34.6172 117.515 31.8424 118.339 30.0231C118.601 29.4602 118.651 29.1985 118.551 29.0807C118.376 28.8451 117.815 28.8712 117.49 29.1068Z" fill="black"/>
<path d="M85.8072 29.2361C85.6949 29.5503 86.0817 30.0477 86.5559 30.2178C87.367 30.4927 87.5043 30.0738 86.8179 29.4456C86.3438 29.0136 85.9195 28.922 85.8072 29.2361Z" fill="black"/>
<path d="M121.883 29.1586C121.771 29.368 122.07 29.8785 122.495 30.1926C123.181 30.69 123.593 30.5199 123.331 29.8392C123.094 29.2633 122.108 28.7921 121.883 29.1586Z" fill="black"/>
<path d="M68.375 31.5803C68.1254 31.685 67.7136 31.9206 67.4641 32.1169C66.94 32.5358 66.2911 33.5436 66.2911 33.9363C66.2911 34.0933 66.2412 34.2766 66.1912 34.3551C66.0665 34.5515 64.2945 35.4808 64.282 35.363C64.2446 35.0357 64.3444 34.4206 64.5566 33.7923C64.6813 33.3865 64.7937 32.9546 64.7937 32.8237C64.7937 32.5096 64.3444 32.274 63.9326 32.3525C63.7455 32.3918 63.5084 32.3394 63.3711 32.2347C62.7597 31.7766 61.6241 32.2871 60.7381 33.4127C59.8147 34.5907 59.8022 35.2452 60.6757 35.7425C61.2123 36.0567 61.8737 35.9912 62.4227 35.5855L62.7971 35.3106V35.808C62.7971 36.2792 62.7347 36.3708 62.0234 36.9598C60.5759 38.1771 59.8022 39.6037 59.8022 41.0566C59.8022 42.3524 60.5884 43.177 61.6241 42.9676C62.8844 42.7189 63.708 40.9257 64.0574 37.6273L64.2072 36.2661L65.2429 35.7033C66.0041 35.2844 66.3285 35.1666 66.4533 35.2583C67.8135 36.2923 68.2502 36.4362 69.2485 36.2268C69.6353 36.1483 70.2093 35.8734 70.6461 35.5724C71.0454 35.2975 71.4073 35.0619 71.4447 35.0619C71.4697 35.0619 71.5321 35.1797 71.5695 35.3106C71.6568 35.6509 72.3806 36.109 72.8423 36.109C73.1543 36.109 73.3789 35.9258 74.1026 35.1143C74.6267 34.5384 75.076 34.1457 75.1883 34.1719C75.2881 34.185 75.5751 34.4991 75.8122 34.8656C76.4736 35.8865 77.6465 36.5802 78.1457 36.253C78.2954 36.1483 78.233 36.0436 77.8587 35.6509C77.5966 35.3891 77.1973 34.7609 76.9477 34.2635C76.511 33.3342 75.9869 32.8368 75.4628 32.8368C75.1633 32.8368 74.2898 33.5436 73.5661 34.3682C72.7425 35.2975 72.5553 34.9049 73.0794 33.308C73.2416 32.7975 73.3539 32.3133 73.3165 32.2347C73.279 32.1431 73.0669 31.9991 72.8173 31.9206C72.2309 31.7112 71.9938 31.9599 71.7068 33.0462C71.5321 33.753 71.3948 33.9886 70.9331 34.4075C69.81 35.4415 68.5996 35.7556 68.063 35.1535C67.6512 34.6954 67.7261 34.486 68.4374 34.1326C69.7476 33.5043 70.2717 32.7583 69.8974 32.0253C69.7975 31.829 69.0613 31.3709 68.8866 31.397C68.8617 31.4101 68.637 31.4887 68.375 31.5803ZM69.1362 32.6012C69.0987 32.8761 68.2502 33.6091 67.9507 33.6221C67.7261 33.6221 67.9133 33.1379 68.2876 32.7059C68.7119 32.2216 69.1986 32.1693 69.1362 32.6012ZM63.159 33.0724C63.4834 33.7138 61.8612 35.4415 61.4993 34.8263C61.3371 34.5515 62.5101 32.8368 62.8595 32.8368C62.9593 32.8368 63.0966 32.9415 63.159 33.0724ZM62.7472 38.4258C62.5974 40.2582 62.1981 41.5933 61.6491 42.1299C61.3246 42.444 61.1374 42.4571 60.8754 42.1822C60.4636 41.7503 60.7631 40.0619 61.4619 38.91C61.7489 38.4258 62.6473 37.4179 62.7721 37.4179C62.8096 37.4179 62.7971 37.876 62.7472 38.4258Z" fill="black"/>
<path d="M54.0373 32.2737C53.9 32.6009 53.663 33.491 53.5132 34.2501L53.2512 35.6114L53.663 35.9909C53.9375 36.2527 54.1995 36.3705 54.4741 36.3705C54.8359 36.3705 55.0106 36.2265 55.7968 35.3234C57.0446 33.8836 57.107 33.8575 57.4814 34.6428C57.6561 34.9962 57.968 35.4412 58.1802 35.6244C58.6793 36.0695 59.4655 36.3051 59.8024 36.1087C60.1393 35.9255 60.1268 35.8862 59.6277 35.6637C59.1285 35.4412 58.8915 35.0224 58.6793 33.9883C58.5171 33.1114 58.1303 32.7056 57.4689 32.7056C57.107 32.7056 56.8824 32.8627 55.934 33.8313C54.6612 35.114 54.5864 35.0878 55.1229 33.4124C55.5223 32.1821 55.5098 32.1036 55.0605 31.8549C54.4865 31.5407 54.3243 31.6062 54.0373 32.2737Z" fill="black"/>
<path d="M78.6447 33.0475C78.2704 34.3564 78.3078 34.736 78.8818 35.3381C79.2936 35.7831 79.4434 35.8485 79.9175 35.8485C80.4916 35.8485 81.3276 35.3904 81.8143 34.8276C82.1387 34.435 82.2011 34.4611 82.3758 35.0501C82.538 35.626 83.137 36.2412 83.5363 36.2412C83.7609 36.2412 83.7734 36.1889 83.6861 35.7438C83.6237 35.4821 83.5862 34.6967 83.6112 34.003C83.6361 32.7858 83.6361 32.7334 83.3367 32.524C82.85 32.1968 82.6753 32.2622 82.2261 33.0083C81.6521 33.9376 80.7037 34.8014 80.2545 34.8014C79.7678 34.8014 79.6805 34.3695 79.9675 33.414L80.1921 32.668L79.9051 32.4324C79.7428 32.2884 79.4558 32.1837 79.2562 32.1837C78.9317 32.1837 78.8818 32.2491 78.6447 33.0475Z" fill="black"/>
<path d="M85.2459 32.5361C85.0587 33.0466 84.9589 34.29 85.0587 34.8528C85.1835 35.5204 85.6951 36.1094 86.1568 36.1094C86.4937 36.1094 86.5312 36.0701 86.4563 35.8083C86.2317 34.9837 86.2317 34.3555 86.4438 33.5309L86.6684 32.667L86.3814 32.4183C85.9447 32.0518 85.4081 32.1042 85.2459 32.5361Z" fill="black"/>
<path d="M112.836 32.5359C112.275 32.6144 111.538 32.85 111.014 33.1249L110.49 33.3867L110.128 33.0987C109.891 32.9286 109.617 32.8369 109.405 32.8631C109.08 32.9024 109.068 32.9417 109.043 33.6877C109.03 34.1197 108.968 34.8395 108.918 35.2715C108.818 36.0437 108.818 36.083 109.13 36.3055C109.629 36.6458 109.854 36.5018 110.291 35.5987C110.515 35.1406 110.877 34.5647 111.114 34.316C111.613 33.7793 112.562 33.282 113.373 33.1642C113.697 33.1118 113.984 33.0202 114.022 32.9678C114.171 32.7191 113.423 32.4443 112.836 32.5359Z" fill="black"/>
</svg>
