<svg width="167" height="50" viewBox="0 0 167 50" fill="none" xmlns="http://www.w3.org/2000/svg">
<mask id="mask0_5_55" style="mask-type:luminance" maskUnits="userSpaceOnUse" x="20" y="15" width="26" height="25">
<path d="M20 15H45.4238V40H20V15Z" fill="white"/>
</mask>
<g mask="url(#mask0_5_55)">
<path d="M40.0723 30.2182C41.2943 28.6631 42.0719 26.6882 42.0719 24.5709C42.0719 19.4876 37.8812 15.3668 32.7118 15.3668C27.5423 15.3668 23.3517 19.4876 23.3517 24.5709C23.3517 26.6882 24.0986 28.6631 25.3206 30.2182C25.3232 30.2215 32.7118 39.6337 32.7118 39.6337C32.7118 39.6337 40.0694 30.2219 40.0723 30.2182Z" fill="#5E3489"/>
</g>
<ellipse cx="32.7118" cy="24.5754" rx="8.47458" ry="8.51064" fill="white"/>
<ellipse cx="32.7118" cy="24.5751" rx="7.41525" ry="7.44681" fill="#EEC400"/>
<g clip-path="url(#clip0_5_55)">
<path d="M35.2476 25.2698C35.1764 25.0936 35.0655 24.9424 34.9165 24.8177C34.7659 24.693 34.5722 24.6049 34.3356 24.5534C34.6136 24.4387 34.8189 24.2691 34.9529 24.0464C35.087 23.8237 35.1532 23.571 35.1532 23.2884C35.1532 22.7399 34.943 22.3277 34.5226 22.0517C34.2578 21.8772 33.9267 21.7575 33.5295 21.6927H33.5725V20.6205H32.9154V21.6378C32.8657 21.6362 32.8177 21.6362 32.7664 21.6362H32.4073V20.6205H31.7518V21.6362H30.0701V22.4822L30.6875 22.6136V26.6445L30.0701 26.7758V27.6186H31.7518V28.5295H32.4089V27.6186H32.9171V28.5295H33.5725V27.5936C34.0724 27.5388 34.4729 27.3991 34.7692 27.1714C35.1598 26.8722 35.3552 26.4301 35.3552 25.8433C35.3535 25.6388 35.3171 25.4477 35.2476 25.2698ZM33.4815 22.9078C33.6387 23.0208 33.7165 23.2037 33.7165 23.453C33.7165 23.6807 33.6321 23.8486 33.4649 23.9566C33.2978 24.0647 33.0445 24.1195 32.7052 24.1195H32.1242V22.7382H32.7664C33.0859 22.7366 33.3242 22.7947 33.4815 22.9078ZM33.7099 26.3536C33.5675 26.4666 33.354 26.5215 33.0693 26.5215H32.1242V25.0703H33.1389C33.3242 25.0703 33.4749 25.0986 33.5891 25.1551C33.7033 25.2116 33.7877 25.2964 33.8423 25.4094C33.8969 25.5225 33.9234 25.6671 33.9234 25.8383C33.9251 26.071 33.8539 26.2406 33.7099 26.3536Z" fill="white"/>
</g>
<path d="M49.608 29.704C50.352 29.704 50.91 29.542 51.282 29.218C51.654 28.894 51.84 28.486 51.84 27.994C51.84 27.562 51.696 27.214 51.408 26.95C51.12 26.674 50.676 26.44 50.076 26.248L48.708 25.834C48.156 25.666 47.676 25.456 47.268 25.204C46.86 24.952 46.542 24.634 46.314 24.25C46.086 23.866 45.972 23.404 45.972 22.864C45.972 21.916 46.32 21.172 47.016 20.632C47.724 20.08 48.672 19.804 49.86 19.804C50.52 19.804 51.108 19.876 51.624 20.02C52.152 20.152 52.56 20.332 52.848 20.56C53.148 20.788 53.298 21.046 53.298 21.334C53.298 21.526 53.25 21.7 53.154 21.856C53.058 22 52.932 22.12 52.776 22.216C52.488 21.988 52.098 21.79 51.606 21.622C51.114 21.454 50.574 21.37 49.986 21.37C49.338 21.37 48.828 21.508 48.456 21.784C48.084 22.048 47.898 22.408 47.898 22.864C47.898 23.224 48.03 23.518 48.294 23.746C48.558 23.962 48.972 24.154 49.536 24.322L50.598 24.646C51.594 24.934 52.368 25.342 52.92 25.87C53.484 26.386 53.766 27.094 53.766 27.994C53.766 28.966 53.406 29.752 52.686 30.352C51.966 30.952 50.946 31.252 49.626 31.252C48.894 31.252 48.246 31.168 47.682 31C47.13 30.844 46.698 30.64 46.386 30.388C46.074 30.124 45.918 29.842 45.918 29.542C45.918 29.302 45.99 29.104 46.134 28.948C46.278 28.78 46.44 28.654 46.62 28.57C46.92 28.834 47.316 29.092 47.808 29.344C48.312 29.584 48.912 29.704 49.608 29.704ZM58.6322 31.234C58.1402 31.234 57.6842 31.168 57.2642 31.036C56.8442 30.904 56.5202 30.754 56.2922 30.586V28.948C56.5202 29.152 56.8022 29.338 57.1382 29.506C57.4862 29.662 57.8942 29.74 58.3622 29.74C59.1422 29.74 59.7602 29.5 60.2162 29.02C60.6842 28.54 60.9182 27.784 60.9182 26.752C60.9182 26.032 60.8042 25.462 60.5762 25.042C60.3482 24.61 60.0422 24.298 59.6582 24.106C59.2742 23.914 58.8542 23.818 58.3982 23.818C58.0142 23.818 57.6842 23.866 57.4082 23.962C57.1322 24.058 56.8922 24.166 56.6882 24.286V30.1H54.8342V24.178C54.8342 23.926 54.8822 23.722 54.9782 23.566C55.0862 23.398 55.2662 23.236 55.5182 23.08C55.8542 22.876 56.2622 22.702 56.7422 22.558C57.2342 22.402 57.7862 22.324 58.3982 22.324C59.2262 22.324 59.9702 22.48 60.6302 22.792C61.3022 23.104 61.8302 23.584 62.2142 24.232C62.5982 24.88 62.7902 25.72 62.7902 26.752C62.7902 27.748 62.6102 28.582 62.2502 29.254C61.9022 29.914 61.4102 30.412 60.7742 30.748C60.1502 31.072 59.4362 31.234 58.6322 31.234ZM56.6882 29.56V34.222C56.6042 34.258 56.4842 34.288 56.3282 34.312C56.1842 34.348 56.0222 34.366 55.8422 34.366C55.5062 34.366 55.2542 34.3 55.0862 34.168C54.9182 34.036 54.8342 33.814 54.8342 33.502V29.524L56.6882 29.56ZM64.7101 27.814L64.6201 26.464L69.7321 25.744C69.6961 25.18 69.4981 24.712 69.1381 24.34C68.7781 23.956 68.2681 23.764 67.6081 23.764C66.9361 23.764 66.3781 24.004 65.9341 24.484C65.4901 24.964 65.2621 25.648 65.2501 26.536L65.2861 27.22C65.3821 28.072 65.6881 28.714 66.2041 29.146C66.7201 29.566 67.3981 29.776 68.2381 29.776C68.7421 29.776 69.2041 29.698 69.6241 29.542C70.0441 29.386 70.3801 29.218 70.6321 29.038C70.7761 29.122 70.8901 29.236 70.9741 29.38C71.0701 29.524 71.1181 29.68 71.1181 29.848C71.1181 30.112 70.9861 30.352 70.7221 30.568C70.4581 30.784 70.0981 30.952 69.6421 31.072C69.1981 31.192 68.6941 31.252 68.1301 31.252C67.2061 31.252 66.3961 31.084 65.7001 30.748C65.0041 30.4 64.4641 29.89 64.0801 29.218C63.6961 28.534 63.5041 27.7 63.5041 26.716C63.5041 26.008 63.6061 25.384 63.8101 24.844C64.0261 24.292 64.3201 23.83 64.6921 23.458C65.0641 23.086 65.5021 22.804 66.0061 22.612C66.5101 22.42 67.0501 22.324 67.6261 22.324C68.3821 22.324 69.0481 22.486 69.6241 22.81C70.2121 23.122 70.6681 23.56 70.9921 24.124C71.3161 24.688 71.4781 25.33 71.4781 26.05C71.4781 26.35 71.4061 26.572 71.2621 26.716C71.1181 26.848 70.9141 26.932 70.6501 26.968L64.7101 27.814ZM80.0883 25.474V27.256H78.2343V25.546C78.2343 24.946 78.0663 24.508 77.7303 24.232C77.3943 23.956 76.9443 23.818 76.3803 23.818C75.9603 23.818 75.5823 23.872 75.2463 23.98C74.9103 24.088 74.6223 24.208 74.3823 24.34V27.256H72.5283V24.304C72.5283 24.028 72.5823 23.806 72.6903 23.638C72.8103 23.458 72.9963 23.29 73.2483 23.134C73.5843 22.93 74.0223 22.744 74.5623 22.576C75.1023 22.408 75.7083 22.324 76.3803 22.324C77.5443 22.324 78.4503 22.588 79.0983 23.116C79.7583 23.632 80.0883 24.418 80.0883 25.474ZM72.5283 26.32H74.3823V30.964C74.2983 30.988 74.1783 31.018 74.0223 31.054C73.8783 31.09 73.7163 31.108 73.5363 31.108C73.2003 31.108 72.9483 31.042 72.7803 30.91C72.6123 30.778 72.5283 30.562 72.5283 30.262V26.32ZM78.2343 26.32H80.0883V30.964C80.0043 30.988 79.8843 31.018 79.7283 31.054C79.5723 31.09 79.4103 31.108 79.2423 31.108C78.8943 31.108 78.6363 31.042 78.4683 30.91C78.3123 30.778 78.2343 30.562 78.2343 30.262V26.32ZM87.3174 29.344V23.494H89.1714V29.488C89.1714 29.74 89.1174 29.944 89.0094 30.1C88.9014 30.256 88.7274 30.406 88.4874 30.55C88.2234 30.718 87.8694 30.874 87.4254 31.018C86.9814 31.174 86.4534 31.252 85.8414 31.252C84.9414 31.252 84.1434 31.096 83.4474 30.784C82.7514 30.472 82.2054 29.992 81.8094 29.344C81.4254 28.684 81.2334 27.844 81.2334 26.824C81.2334 25.78 81.4194 24.928 81.7914 24.268C82.1634 23.608 82.6734 23.122 83.3214 22.81C83.9694 22.486 84.6774 22.324 85.4454 22.324C85.9014 22.324 86.3274 22.384 86.7234 22.504C87.1194 22.624 87.4314 22.774 87.6594 22.954V24.574C87.4434 24.37 87.1674 24.196 86.8314 24.052C86.4954 23.896 86.1054 23.818 85.6614 23.818C85.1934 23.818 84.7614 23.92 84.3654 24.124C83.9814 24.316 83.6754 24.634 83.4474 25.078C83.2194 25.522 83.1054 26.11 83.1054 26.842C83.1054 27.85 83.3454 28.588 83.8254 29.056C84.3054 29.524 84.9474 29.758 85.7514 29.758C86.1234 29.758 86.4294 29.716 86.6694 29.632C86.9214 29.548 87.1374 29.452 87.3174 29.344ZM89.1714 23.908H87.3174V19.318C87.4014 19.294 87.5214 19.264 87.6774 19.228C87.8334 19.192 87.9954 19.174 88.1634 19.174C88.5114 19.174 88.7634 19.24 88.9194 19.372C89.0874 19.492 89.1714 19.708 89.1714 20.02V23.908Z" fill="#5E3489"/>
<path d="M96.923 24.628V26.068H92.279V24.628H96.923ZM95.087 26.068L95.537 24.97C96.413 24.97 97.139 25.102 97.715 25.366C98.303 25.618 98.741 25.966 99.029 26.41C99.317 26.854 99.461 27.358 99.461 27.922C99.461 29.038 99.053 29.866 98.237 30.406C97.433 30.946 96.281 31.216 94.781 31.216C94.469 31.216 94.145 31.204 93.809 31.18C93.473 31.168 93.137 31.132 92.801 31.072C92.465 31.024 92.147 30.958 91.847 30.874C91.307 30.706 91.037 30.388 91.037 29.92V20.92C91.037 20.704 91.091 20.542 91.199 20.434C91.319 20.314 91.481 20.224 91.685 20.164C92.093 20.044 92.543 19.96 93.035 19.912C93.539 19.864 94.067 19.84 94.619 19.84C96.023 19.84 97.109 20.086 97.877 20.578C98.657 21.07 99.047 21.826 99.047 22.846C99.047 23.374 98.909 23.848 98.633 24.268C98.357 24.688 97.931 25.018 97.355 25.258C96.779 25.498 96.035 25.618 95.123 25.618L94.961 24.628C95.693 24.628 96.239 24.484 96.599 24.196C96.959 23.896 97.139 23.476 97.139 22.936C97.139 22.408 96.929 22.012 96.509 21.748C96.089 21.472 95.465 21.334 94.637 21.334C94.289 21.334 93.965 21.346 93.665 21.37C93.377 21.394 93.119 21.43 92.891 21.478V29.524C93.143 29.584 93.443 29.632 93.791 29.668C94.151 29.692 94.499 29.704 94.835 29.704C95.711 29.704 96.377 29.554 96.833 29.254C97.301 28.954 97.535 28.492 97.535 27.868C97.535 27.304 97.325 26.866 96.905 26.554C96.497 26.23 95.891 26.068 95.087 26.068ZM100.64 20.002C100.64 19.69 100.748 19.432 100.964 19.228C101.18 19.024 101.444 18.922 101.756 18.922C102.092 18.922 102.362 19.024 102.566 19.228C102.77 19.432 102.872 19.69 102.872 20.002C102.872 20.302 102.77 20.56 102.566 20.776C102.362 20.98 102.092 21.082 101.756 21.082C101.444 21.082 101.18 20.98 100.964 20.776C100.748 20.56 100.64 20.302 100.64 20.002ZM100.838 26.248H102.692V30.964C102.608 30.988 102.488 31.018 102.332 31.054C102.188 31.09 102.026 31.108 101.846 31.108C101.51 31.108 101.258 31.042 101.09 30.91C100.922 30.778 100.838 30.562 100.838 30.262V26.248ZM102.692 27.166H100.838V22.63C100.922 22.606 101.042 22.582 101.198 22.558C101.354 22.522 101.522 22.504 101.702 22.504C102.038 22.504 102.284 22.57 102.44 22.702C102.608 22.822 102.692 23.038 102.692 23.35V27.166ZM104.402 26.248H106.238V28.552C106.238 28.984 106.364 29.29 106.616 29.47C106.868 29.65 107.222 29.74 107.678 29.74C107.87 29.74 108.086 29.71 108.326 29.65C108.566 29.59 108.764 29.518 108.92 29.434C109.004 29.518 109.076 29.626 109.136 29.758C109.208 29.878 109.244 30.016 109.244 30.172C109.244 30.484 109.082 30.742 108.758 30.946C108.446 31.138 107.972 31.234 107.336 31.234C106.448 31.234 105.734 31.036 105.194 30.64C104.666 30.244 104.402 29.584 104.402 28.66V26.248ZM105.446 24.232V22.756H109.028C109.076 22.828 109.118 22.93 109.154 23.062C109.202 23.194 109.226 23.332 109.226 23.476C109.226 23.728 109.166 23.92 109.046 24.052C108.938 24.172 108.782 24.232 108.578 24.232H105.446ZM106.238 26.752H104.402V20.254C104.474 20.23 104.588 20.2 104.744 20.164C104.9 20.128 105.068 20.11 105.248 20.11C105.584 20.11 105.83 20.176 105.986 20.308C106.154 20.44 106.238 20.656 106.238 20.956V26.752ZM114.18 23.836C113.424 23.836 112.788 24.094 112.272 24.61C111.756 25.114 111.498 25.846 111.498 26.806C111.498 27.754 111.744 28.48 112.236 28.984C112.74 29.488 113.388 29.74 114.18 29.74C114.648 29.74 115.044 29.68 115.368 29.56C115.692 29.428 115.974 29.284 116.214 29.128C116.37 29.224 116.496 29.338 116.592 29.47C116.688 29.602 116.736 29.758 116.736 29.938C116.736 30.31 116.49 30.622 115.998 30.874C115.506 31.114 114.87 31.234 114.09 31.234C113.214 31.234 112.44 31.072 111.768 30.748C111.096 30.424 110.568 29.932 110.184 29.272C109.812 28.612 109.626 27.79 109.626 26.806C109.626 25.81 109.824 24.982 110.22 24.322C110.616 23.662 111.15 23.164 111.822 22.828C112.494 22.492 113.232 22.324 114.036 22.324C114.804 22.324 115.428 22.462 115.908 22.738C116.4 23.002 116.646 23.314 116.646 23.674C116.646 23.842 116.598 23.992 116.502 24.124C116.418 24.256 116.31 24.364 116.178 24.448C115.926 24.28 115.644 24.136 115.332 24.016C115.02 23.896 114.636 23.836 114.18 23.836ZM125.659 26.788C125.659 27.688 125.485 28.474 125.137 29.146C124.789 29.818 124.297 30.34 123.661 30.712C123.025 31.072 122.275 31.252 121.411 31.252C120.547 31.252 119.797 31.072 119.161 30.712C118.525 30.34 118.033 29.824 117.685 29.164C117.337 28.492 117.163 27.7 117.163 26.788C117.163 25.876 117.337 25.09 117.685 24.43C118.045 23.758 118.543 23.242 119.179 22.882C119.827 22.51 120.571 22.324 121.411 22.324C122.263 22.324 123.007 22.51 123.643 22.882C124.279 23.242 124.771 23.758 125.119 24.43C125.479 25.09 125.659 25.876 125.659 26.788ZM121.411 23.818C120.691 23.818 120.115 24.082 119.683 24.61C119.263 25.138 119.053 25.864 119.053 26.788C119.053 27.724 119.257 28.456 119.665 28.984C120.085 29.5 120.667 29.758 121.411 29.758C122.155 29.758 122.731 29.494 123.139 28.966C123.559 28.438 123.769 27.712 123.769 26.788C123.769 25.864 123.559 25.138 123.139 24.61C122.719 24.082 122.143 23.818 121.411 23.818ZM126.677 20.002C126.677 19.69 126.785 19.432 127.001 19.228C127.217 19.024 127.481 18.922 127.793 18.922C128.129 18.922 128.399 19.024 128.603 19.228C128.807 19.432 128.909 19.69 128.909 20.002C128.909 20.302 128.807 20.56 128.603 20.776C128.399 20.98 128.129 21.082 127.793 21.082C127.481 21.082 127.217 20.98 127.001 20.776C126.785 20.56 126.677 20.302 126.677 20.002ZM126.875 26.248H128.729V30.964C128.645 30.988 128.525 31.018 128.369 31.054C128.225 31.09 128.063 31.108 127.883 31.108C127.547 31.108 127.295 31.042 127.127 30.91C126.959 30.778 126.875 30.562 126.875 30.262V26.248ZM128.729 27.166H126.875V22.63C126.959 22.606 127.079 22.582 127.235 22.558C127.391 22.522 127.559 22.504 127.739 22.504C128.075 22.504 128.321 22.57 128.477 22.702C128.645 22.822 128.729 23.038 128.729 23.35V27.166ZM137.963 25.474V27.256H136.109V25.546C136.109 24.946 135.941 24.508 135.605 24.232C135.269 23.956 134.819 23.818 134.255 23.818C133.835 23.818 133.457 23.872 133.121 23.98C132.785 24.088 132.497 24.208 132.257 24.34V27.256H130.403V24.304C130.403 24.028 130.457 23.806 130.565 23.638C130.685 23.458 130.871 23.29 131.123 23.134C131.459 22.93 131.897 22.744 132.437 22.576C132.977 22.408 133.583 22.324 134.255 22.324C135.419 22.324 136.325 22.588 136.973 23.116C137.633 23.632 137.963 24.418 137.963 25.474ZM130.403 26.32H132.257V30.964C132.173 30.988 132.053 31.018 131.897 31.054C131.753 31.09 131.591 31.108 131.411 31.108C131.075 31.108 130.823 31.042 130.655 30.91C130.487 30.778 130.403 30.562 130.403 30.262V26.32ZM136.109 26.32H137.963V30.964C137.879 30.988 137.759 31.018 137.603 31.054C137.447 31.09 137.285 31.108 137.117 31.108C136.769 31.108 136.511 31.042 136.343 30.91C136.187 30.778 136.109 30.562 136.109 30.262V26.32ZM145.786 28.678C145.786 29.482 145.486 30.112 144.886 30.568C144.298 31.024 143.44 31.252 142.312 31.252C141.376 31.252 140.608 31.108 140.008 30.82C139.408 30.532 139.108 30.184 139.108 29.776C139.108 29.596 139.15 29.434 139.234 29.29C139.33 29.134 139.456 29.008 139.612 28.912C139.948 29.128 140.332 29.326 140.764 29.506C141.208 29.686 141.706 29.776 142.258 29.776C143.386 29.776 143.95 29.416 143.95 28.696C143.95 28.384 143.854 28.138 143.662 27.958C143.47 27.766 143.182 27.622 142.798 27.526L141.538 27.202C140.734 27.022 140.14 26.734 139.756 26.338C139.372 25.942 139.18 25.432 139.18 24.808C139.18 24.112 139.462 23.524 140.026 23.044C140.602 22.564 141.436 22.324 142.528 22.324C143.092 22.324 143.59 22.384 144.022 22.504C144.466 22.612 144.808 22.768 145.048 22.972C145.3 23.176 145.426 23.404 145.426 23.656C145.426 23.836 145.384 23.998 145.3 24.142C145.216 24.286 145.108 24.394 144.976 24.466C144.832 24.382 144.64 24.286 144.4 24.178C144.16 24.07 143.884 23.98 143.572 23.908C143.272 23.836 142.96 23.8 142.636 23.8C142.132 23.8 141.73 23.89 141.43 24.07C141.142 24.238 140.998 24.484 140.998 24.808C140.998 25.036 141.082 25.24 141.25 25.42C141.418 25.588 141.7 25.714 142.096 25.798L143.158 26.068C144.058 26.272 144.718 26.59 145.138 27.022C145.57 27.442 145.786 27.994 145.786 28.678Z" fill="#EEC400"/>
<defs>
<clipPath id="clip0_5_55">
<rect width="8.47458" height="8.51064" fill="white" transform="translate(28.4746 20.3198)"/>
</clipPath>
</defs>
</svg>
