<svg xmlns="http://www.w3.org/2000/svg" xmlns:xlink="http://www.w3.org/1999/xlink" version="1.1" width="1024" height="1024" viewBox="0 0 1024 1024" xml:space="preserve">
<desc>Created with Fabric.js 3.5.0</desc>
<defs>
</defs>
<rect x="0" y="0" width="100%" height="100%" fill="#ffffff"/>
<g transform="matrix(2.0334 0 0 2.0334 512.0035 512.0035)" id="374377">
<g style="" vector-effect="non-scaling-stroke">
		<g transform="matrix(1 0 0 1 0 0)">
<rect style="stroke: none; stroke-width: 1; stroke-dasharray: none; stroke-linecap: butt; stroke-dashoffset: 0; stroke-linejoin: miter; stroke-miterlimit: 4; is-custom-font: none; font-file-url: none; fill: rgb(255,221,34); fill-rule: nonzero; opacity: 1;" x="-256" y="-256" rx="15" ry="15" width="512" height="512"/>
</g>
		<g transform="matrix(1 0 0 1 0.4284 0.3911)">
<path style="stroke: none; stroke-width: 1; stroke-dasharray: none; stroke-linecap: butt; stroke-dashoffset: 0; stroke-linejoin: miter; stroke-miterlimit: 4; is-custom-font: none; font-file-url: none; fill: rgb(34,34,34); fill-rule: nonzero; opacity: 1;" transform=" translate(-256.4284, -256.3912)" d="M 418 306 l -6 -17 s 25 -38 -37 -51 c 0 0 4 -47 -18 -69 c 48 -47 37 -118 -72 -72 c -56 -107 -272 144 -182 184 c -9 12 -9 72 53 78 c 42 90 144 96 203 69 s 93 -113 59 -122 z m -263 40 c -51 -5 -56 -75 -12 -82 s 55 86 12 82 z m -15 -95 c -14 0 -31 19 -31 19 c -68 -33 123 -252 164 -167 c 0 0 -100 48 -133 148 z m 200 85 c 0 -4 -21 6 -59 -7 c 3 -21 48 18 123 -33 l 6 21 c 28 -5 0 90 -90 89 c -73 -1 -96 -76 -56 -117 c 8 -8 -29 -24 -22 -59 c 3 -15 16 -37 49 -31 s 40 -24 62 -13 s 9 53 12 59 s 35 7 41 24 s -41 54 -114 44 c -17 -2 -27 20 -16 34 c 22 32 112 11 127 -20 c -38 29 -116 40 -122 9 c 22 10 59 4 59 0 z m -131 -158 c 22 -27 51 -43 51 -43 l -6 15 s 21 -16 44 -16 l -8 8 c 26 1 37 11 37 11 s -61 -18 -118 25 z m 135 39 c 13 -1 9 29 9 29 h -8 s -14 -28 -1 -29 z m -59 33 c -9 1 -19 6 -18 2 c 4 -16 41 -12 40 2 s -9 -6 -22 -4 z m 21 12 c 1 2 -7 0 -13 1 s -12 4 -12 2 s 23 -11 25 -3 z m 20 3 c 3 -6 15 0 12 6 s -15 0 -12 -6 z m 25 2 c -6 0 -6 -13 0 -13 s 6 14 0 14 z m -180 53 c 3 3 -6 9 -13 4 s 8 -29 -10 -35 s -13 17 -18 14 s 7 -35 28 -22 s -6 33 6 39 s 5 -2 7 0 z" stroke-linecap="round"/>
</g>
</g>
</g>
</svg>